<svg width="23" height="23" viewBox="0 0 23 23" fill="none" xmlns="http://www.w3.org/2000/svg">
<path d="M15.8928 9.71381H17.7224C19.5519 9.71381 20.4667 8.79906 20.4667 6.96954V5.14003C20.4667 3.31051 19.5519 2.39575 17.7224 2.39575H15.8928C14.0632 2.39575 13.1484 3.31051 13.1484 5.14003V6.96954C13.1484 8.79906 14.0632 9.71381 15.8928 9.71381Z" stroke="#292D32" stroke-width="1.37216" stroke-miterlimit="10" stroke-linecap="round" stroke-linejoin="round"/>
<path d="M4.91622 20.6906H6.74579C8.57536 20.6906 9.49014 19.7759 9.49014 17.9463V16.1168C9.49014 14.2873 8.57536 13.3726 6.74579 13.3726H4.91622C3.08666 13.3726 2.17188 14.2873 2.17188 16.1168V17.9463C2.17188 19.7759 3.08666 20.6906 4.91622 20.6906Z" stroke="#292D32" stroke-width="1.37216" stroke-miterlimit="10" stroke-linecap="round" stroke-linejoin="round"/>
<path d="M5.83101 9.71357C7.85189 9.71357 9.49014 8.07537 9.49014 6.05454C9.49014 4.03371 7.85189 2.39551 5.83101 2.39551C3.81012 2.39551 2.17188 4.03371 2.17188 6.05454C2.17188 8.07537 3.81012 9.71357 5.83101 9.71357Z" stroke="#292D32" stroke-width="1.37216" stroke-miterlimit="10" stroke-linecap="round" stroke-linejoin="round"/>
<path d="M16.8076 20.6906C18.8284 20.6906 20.4667 19.0524 20.4667 17.0316C20.4667 15.0108 18.8284 13.3726 16.8076 13.3726C14.7867 13.3726 13.1484 15.0108 13.1484 17.0316C13.1484 19.0524 14.7867 20.6906 16.8076 20.6906Z" stroke="#292D32" stroke-width="1.37216" stroke-miterlimit="10" stroke-linecap="round" stroke-linejoin="round"/>
</svg>
