<svg width="19" height="19" viewBox="0 0 19 19" fill="none" xmlns="http://www.w3.org/2000/svg">
<path fill-rule="evenodd" clip-rule="evenodd" d="M0 2.64096C0 1.18466 1.18444 0 2.64047 0C4.09649 0 5.28093 1.18466 5.28093 2.64096C5.28093 3.97049 3.18968 7.03778 2.95129 7.38261C2.88037 7.48448 2.76419 7.5456 2.64047 7.5456C2.51674 7.5456 2.40056 7.48448 2.32965 7.38261C2.09125 7.03778 0 3.97049 0 2.64096ZM1.5103 2.64098C1.5103 3.26576 2.01727 3.77282 2.64193 3.77282C3.26659 3.77282 3.77356 3.26576 3.77356 2.64098C3.77356 2.0162 3.26659 1.50914 2.64193 1.50914C2.01727 1.50914 1.5103 2.0162 1.5103 2.64098Z" fill="#DD3E4A"/>
<path d="M5.28063 6.86579C4.93435 6.81599 4.55564 6.79109 4.15504 6.79109C3.94757 6.77449 3.76953 6.95709 3.76953 7.16837C3.76953 7.37663 3.93852 7.54565 4.14674 7.54565C4.50433 7.5547 4.85967 7.56753 5.17275 7.6128C5.19161 7.61582 5.20972 7.61658 5.22707 7.61658C5.41115 7.61658 5.57259 7.48151 5.60051 7.29287C5.62993 7.08688 5.48659 6.89597 5.28063 6.86579Z" fill="#DD3E4A"/>
<path d="M8.06494 8.47074C7.75638 7.9931 7.3422 7.61432 6.83523 7.34418C6.65191 7.2476 6.42332 7.31702 6.32525 7.50038C6.22793 7.68374 6.29733 7.91237 6.48141 8.01046C6.87974 8.22249 7.19056 8.50696 7.43198 8.88047C7.50365 8.99214 7.62511 9.05326 7.74883 9.05326C7.819 9.05326 7.88991 9.03364 7.95328 8.99214C8.12755 8.87896 8.1781 8.64504 8.06494 8.47074Z" fill="#DD3E4A"/>
<path d="M10.5155 16.7453C10.1413 16.5069 9.85007 16.1975 9.62375 15.7991C9.52039 15.618 9.2903 15.5539 9.10924 15.6572C8.92818 15.7606 8.86405 15.9907 8.9674 16.1718C9.25559 16.6789 9.62903 17.0751 10.1088 17.3814C10.1722 17.4221 10.2424 17.441 10.3118 17.441C10.4363 17.441 10.5585 17.3791 10.6301 17.266C10.7426 17.0909 10.6913 16.857 10.5155 16.7453Z" fill="#DD3E4A"/>
<path d="M13.1982 17.355C12.6739 17.355 12.1971 17.312 11.7806 17.2274C11.5724 17.1882 11.377 17.318 11.3355 17.5225C11.2948 17.727 11.4261 17.9262 11.6305 17.9677C12.096 18.062 12.6233 18.1095 13.1982 18.1095C13.4064 18.1095 13.5754 17.9405 13.5754 17.7322C13.5754 17.524 13.4064 17.355 13.1982 17.355Z" fill="#DD3E4A"/>
<path d="M8.50237 11.9402C8.51293 11.9402 8.52349 11.9394 8.53406 11.9379C8.74152 11.9205 8.89542 11.7379 8.87807 11.5304C8.82375 10.8891 8.75661 10.4114 8.65929 9.98358C8.61252 9.77985 8.40807 9.65158 8.20739 9.69911C8.00445 9.7459 7.87696 9.94812 7.92373 10.1511C8.01351 10.5435 8.07537 10.9887 8.12667 11.5946C8.14327 11.7915 8.30849 11.9402 8.50237 11.9402Z" fill="#DD3E4A"/>
<path d="M9.17333 14.4951C9.07149 13.9941 9.02019 13.4554 8.98775 13.0419C8.97115 12.8344 8.78858 12.6774 8.58187 12.6955C8.3744 12.7121 8.21899 12.894 8.23559 13.1015C8.27029 13.5361 8.32386 14.105 8.434 14.6453C8.47021 14.8234 8.62713 14.9471 8.80291 14.9471C8.82856 14.9471 8.85346 14.9449 8.87911 14.9396C9.0828 14.8988 9.21483 14.6996 9.17333 14.4951Z" fill="#DD3E4A"/>
<path fill-rule="evenodd" clip-rule="evenodd" d="M11.3125 10.9411C11.3125 9.06899 12.8357 7.54553 14.7074 7.54553C16.5791 7.54553 18.1023 9.06899 18.1023 10.9411C18.1023 12.6607 15.3464 17.3903 15.0325 17.9237C14.9646 18.0384 14.8409 18.1094 14.7074 18.1094C14.5739 18.1094 14.4501 18.0384 14.3822 17.9237C14.0684 17.3903 11.3125 12.6607 11.3125 10.9411ZM12.8228 10.9411C12.8228 11.9816 13.6685 12.8275 14.7089 12.8275C15.7492 12.8275 16.5949 11.9816 16.5949 10.9411C16.5949 9.90057 15.7492 9.05471 14.7089 9.05471C13.6685 9.05471 12.8228 9.90057 12.8228 10.9411Z" fill="#DD3E4A"/>
</svg>
