<svg width="177" height="36" viewBox="0 0 177 36" fill="none" xmlns="http://www.w3.org/2000/svg">
<path d="M18.6077 26.2258L25.5426 30.6194C26.429 31.1811 27.5296 30.3458 27.2666 29.311L25.2629 21.4292C25.2065 21.2097 25.2132 20.9787 25.2822 20.7628C25.3512 20.5469 25.4798 20.3548 25.6531 20.2087L31.8719 15.0328C32.689 14.3527 32.2672 12.9966 31.2174 12.9284L23.0961 12.4014C22.8774 12.3857 22.6676 12.3083 22.4911 12.178C22.3147 12.0478 22.1789 11.8701 22.0995 11.6657L19.0706 4.03812C18.9883 3.82112 18.8419 3.63431 18.6509 3.50248C18.4599 3.37065 18.2333 3.30005 18.0012 3.30005C17.7691 3.30005 17.5425 3.37065 17.3515 3.50248C17.1605 3.63431 17.0141 3.82112 16.9317 4.03812L13.9028 11.6657C13.8235 11.8701 13.6877 12.0478 13.5112 12.178C13.3348 12.3083 13.125 12.3857 12.9062 12.4014L4.78495 12.9284C3.73513 12.9966 3.31338 14.3527 4.1305 15.0328L10.3493 20.2087C10.5226 20.3548 10.6511 20.5469 10.7201 20.7628C10.7892 20.9787 10.7958 21.2097 10.7394 21.4292L8.88127 28.7387C8.56562 29.9804 9.88633 30.9828 10.9501 30.3088L17.3947 26.2258C17.5759 26.1104 17.7863 26.0491 18.0012 26.0491C18.216 26.0491 18.4264 26.1104 18.6077 26.2258Z" fill="#DADDE6"/>
<path d="M53.8089 26.2258L60.7437 30.6194C61.6302 31.1811 62.7308 30.3458 62.4677 29.311L60.4641 21.4292C60.4077 21.2097 60.4144 20.9787 60.4834 20.7628C60.5524 20.5469 60.681 20.3548 60.8543 20.2087L67.073 15.0328C67.8901 14.3527 67.4684 12.9966 66.4186 12.9284L58.2973 12.4014C58.0785 12.3857 57.8687 12.3083 57.6923 12.178C57.5159 12.0478 57.3801 11.8701 57.3007 11.6657L54.2718 4.03812C54.1895 3.82112 54.0431 3.63431 53.8521 3.50248C53.661 3.37065 53.4344 3.30005 53.2023 3.30005C52.9703 3.30005 52.7437 3.37065 52.5526 3.50248C52.3616 3.63431 52.2152 3.82112 52.1329 4.03812L49.104 11.6657C49.0246 11.8701 48.8888 12.0478 48.7124 12.178C48.536 12.3083 48.3262 12.3857 48.1074 12.4014L39.9861 12.9284C38.9363 12.9966 38.5146 14.3527 39.3317 15.0328L45.5504 20.2087C45.7237 20.3548 45.8523 20.5469 45.9213 20.7628C45.9903 20.9787 45.997 21.2097 45.9406 21.4292L44.0824 28.7387C43.7668 29.9804 45.0875 30.9828 46.1512 30.3088L52.5958 26.2258C52.7771 26.1104 52.9875 26.0491 53.2023 26.0491C53.4172 26.0491 53.6276 26.1104 53.8089 26.2258Z" fill="#DADDE6"/>
<path d="M89.0081 26.2258L95.943 30.6194C96.8294 31.1811 97.93 30.3458 97.667 29.311L95.6633 21.4292C95.6069 21.2097 95.6136 20.9787 95.6826 20.7628C95.7516 20.5469 95.8802 20.3548 96.0535 20.2087L102.272 15.0328C103.089 14.3527 102.668 12.9966 101.618 12.9284L93.4965 12.4014C93.2778 12.3857 93.068 12.3083 92.8915 12.178C92.7151 12.0478 92.5793 11.8701 92.4999 11.6657L89.471 4.03812C89.3887 3.82112 89.2423 3.63431 89.0513 3.50248C88.8603 3.37065 88.6337 3.30005 88.4016 3.30005C88.1695 3.30005 87.9429 3.37065 87.7519 3.50248C87.5608 3.63431 87.4144 3.82112 87.3321 4.03812L84.3032 11.6657C84.2239 11.8701 84.0881 12.0478 83.9116 12.178C83.7352 12.3083 83.5254 12.3857 83.3066 12.4014L75.1853 12.9284C74.1355 12.9966 73.7138 14.3527 74.5309 15.0328L80.7496 20.2087C80.9229 20.3548 81.0515 20.5469 81.1205 20.7628C81.1895 20.9787 81.1962 21.2097 81.1398 21.4292L79.2817 28.7387C78.966 29.9804 80.2867 30.9828 81.3505 30.3088L87.795 26.2258C87.9763 26.1104 88.1867 26.0491 88.4016 26.0491C88.6164 26.0491 88.8268 26.1104 89.0081 26.2258Z" fill="#DADDE6"/>
<path d="M124.207 26.2258L131.142 30.6194C132.029 31.1811 133.129 30.3458 132.866 29.311L130.863 21.4292C130.806 21.2097 130.813 20.9787 130.882 20.7628C130.951 20.5469 131.079 20.3548 131.253 20.2087L137.471 15.0328C138.289 14.3527 137.867 12.9966 136.817 12.9284L128.696 12.4014C128.477 12.3857 128.267 12.3083 128.091 12.178C127.914 12.0478 127.778 11.8701 127.699 11.6657L124.67 4.03812C124.588 3.82112 124.442 3.63431 124.25 3.50248C124.059 3.37065 123.833 3.30005 123.601 3.30005C123.369 3.30005 123.142 3.37065 122.951 3.50248C122.76 3.63431 122.614 3.82112 122.531 4.03812L119.502 11.6657C119.423 11.8701 119.287 12.0478 119.111 12.178C118.934 12.3083 118.725 12.3857 118.506 12.4014L110.385 12.9284C109.335 12.9966 108.913 14.3527 109.73 15.0328L115.949 20.2087C116.122 20.3548 116.251 20.5469 116.32 20.7628C116.389 20.9787 116.395 21.2097 116.339 21.4292L114.481 28.7387C114.165 29.9804 115.486 30.9828 116.55 30.3088L122.994 26.2258C123.176 26.1104 123.386 26.0491 123.601 26.0491C123.816 26.0491 124.026 26.1104 124.207 26.2258Z" fill="#DADDE6"/>
<path d="M159.407 26.2258L166.341 30.6194C167.228 31.1811 168.328 30.3458 168.065 29.311L166.062 21.4292C166.005 21.2097 166.012 20.9787 166.081 20.7628C166.15 20.5469 166.279 20.3548 166.452 20.2087L172.671 15.0328C173.488 14.3527 173.066 12.9966 172.016 12.9284L163.895 12.4014C163.676 12.3857 163.466 12.3083 163.29 12.178C163.114 12.0478 162.978 11.8701 162.898 11.6657L159.869 4.03812C159.787 3.82112 159.641 3.63431 159.45 3.50248C159.259 3.37065 159.032 3.30005 158.8 3.30005C158.568 3.30005 158.341 3.37065 158.15 3.50248C157.959 3.63431 157.813 3.82112 157.731 4.03812L154.702 11.6657C154.622 11.8701 154.486 12.0478 154.31 12.178C154.134 12.3083 153.924 12.3857 153.705 12.4014L145.584 12.9284C144.534 12.9966 144.112 14.3527 144.929 15.0328L151.148 20.2087C151.321 20.3548 151.45 20.5469 151.519 20.7628C151.588 20.9787 151.595 21.2097 151.538 21.4292L149.68 28.7387C149.364 29.9804 150.685 30.9828 151.749 30.3088L158.193 26.2258C158.375 26.1104 158.585 26.0491 158.8 26.0491C159.015 26.0491 159.225 26.1104 159.407 26.2258Z" fill="#DADDE6"/>
</svg>
