<svg width="21" height="15" viewBox="0 0 21 15" fill="none" xmlns="http://www.w3.org/2000/svg">
<path d="M10.3492 2.4001C13.7602 2.4001 16.8022 4.3171 18.2872 7.3501C16.8022 10.3831 13.7692 12.3001 10.3492 12.3001C6.92922 12.3001 3.89622 10.3831 2.41122 7.3501C3.89622 4.3171 6.93822 2.4001 10.3492 2.4001ZM10.3492 0.600098C5.84922 0.600098 2.00622 3.3991 0.449219 7.3501C2.00622 11.3011 5.84922 14.1001 10.3492 14.1001C14.8492 14.1001 18.6922 11.3011 20.2492 7.3501C18.6922 3.3991 14.8492 0.600098 10.3492 0.600098ZM10.3492 5.1001C11.5912 5.1001 12.5992 6.1081 12.5992 7.3501C12.5992 8.5921 11.5912 9.6001 10.3492 9.6001C9.10722 9.6001 8.09922 8.5921 8.09922 7.3501C8.09922 6.1081 9.10722 5.1001 10.3492 5.1001ZM10.3492 3.3001C8.11722 3.3001 6.29922 5.1181 6.29922 7.3501C6.29922 9.5821 8.11722 11.4001 10.3492 11.4001C12.5812 11.4001 14.3992 9.5821 14.3992 7.3501C14.3992 5.1181 12.5812 3.3001 10.3492 3.3001Z" fill="#DD3E4A"/>
</svg>
