<svg width="17" height="16" viewBox="0 0 17 16" fill="none" xmlns="http://www.w3.org/2000/svg">
<g clip-path="url(#clip0_256_637)">
<path d="M16.1374 16V15.9993H16.1414V10.1313C16.1414 7.26065 15.5234 5.04932 12.1674 5.04932C10.5541 5.04932 9.47145 5.93465 9.02945 6.77399H8.98278V5.31732H5.80078V15.9993H9.11411V10.71C9.11411 9.31732 9.37811 7.97065 11.1028 7.97065C12.8021 7.97065 12.8274 9.55999 12.8274 10.7993V16H16.1374Z" fill="white"/>
<path d="M0.40625 5.31812H3.72358V16.0001H0.40625V5.31812Z" fill="white"/>
<path d="M2.06196 0C1.00129 0 0.140625 0.860667 0.140625 1.92133C0.140625 2.982 1.00129 3.86067 2.06196 3.86067C3.12263 3.86067 3.98329 2.982 3.98329 1.92133C3.98263 0.860667 3.12196 0 2.06196 0V0Z" fill="white"/>
</g>
<defs>
<clipPath id="clip0_256_637">
<rect width="16" height="16" fill="white" transform="translate(0.140625)"/>
</clipPath>
</defs>
</svg>
