<svg width="17" height="18" viewBox="0 0 17 18" fill="none" xmlns="http://www.w3.org/2000/svg">
<path fill-rule="evenodd" clip-rule="evenodd" d="M0 2.97917C0 1.61208 1.11208 0.5 2.47917 0.5C3.84625 0.5 4.95833 1.61208 4.95833 2.97917C4.95833 4.22725 2.99483 7.10662 2.771 7.43033C2.70442 7.52596 2.59533 7.58333 2.47917 7.58333C2.363 7.58333 2.25392 7.52596 2.18733 7.43033C1.9635 7.10662 0 4.22725 0 2.97917ZM1.41602 2.97913C1.41602 3.56563 1.89202 4.04163 2.47852 4.04163C3.06502 4.04163 3.54102 3.56563 3.54102 2.97913C3.54102 2.39263 3.06502 1.91663 2.47852 1.91663C1.89202 1.91663 1.41602 2.39263 1.41602 2.97913Z" fill="black"/>
<path d="M4.96176 6.94513C4.63664 6.89838 4.28105 6.87501 3.90493 6.87501C3.71014 6.85943 3.54297 7.03084 3.54297 7.22918C3.54297 7.42468 3.70164 7.58334 3.89714 7.58334C4.23289 7.59184 4.56651 7.60388 4.86047 7.64638C4.87818 7.64922 4.89518 7.64993 4.91147 7.64993C5.0843 7.64993 5.23589 7.52313 5.26209 7.34605C5.28972 7.15268 5.15514 6.97347 4.96176 6.94513Z" fill="black"/>
<path d="M7.56926 8.45191C7.27955 8.00354 6.89067 7.64796 6.41467 7.39437C6.24255 7.30371 6.02792 7.36887 5.93584 7.541C5.84447 7.71312 5.90963 7.92775 6.08247 8.01983C6.45647 8.21887 6.7483 8.48591 6.97497 8.83654C7.04226 8.94137 7.1563 8.99875 7.27247 8.99875C7.33834 8.99875 7.40492 8.98033 7.46442 8.94137C7.62805 8.83512 7.67551 8.61554 7.56926 8.45191Z" fill="black"/>
<path d="M9.87882 16.2194C9.52749 15.9956 9.25407 15.7052 9.04157 15.3312C8.94453 15.1612 8.72849 15.101 8.55849 15.198C8.38849 15.2951 8.32828 15.5111 8.42532 15.6811C8.69591 16.1571 9.04653 16.529 9.49703 16.8166C9.55653 16.8548 9.62241 16.8725 9.68757 16.8725C9.80445 16.8725 9.9192 16.8144 9.98649 16.7082C10.092 16.5439 10.0439 16.3243 9.87882 16.2194Z" fill="black"/>
<path d="M12.3965 16.7918C11.9042 16.7918 11.4565 16.7514 11.0655 16.6721C10.87 16.6353 10.6865 16.7571 10.6476 16.949C10.6093 17.141 10.7326 17.328 10.9245 17.367C11.3616 17.4555 11.8567 17.5001 12.3965 17.5001C12.592 17.5001 12.7506 17.3415 12.7506 17.146C12.7506 16.9505 12.592 16.7918 12.3965 16.7918Z" fill="black"/>
<path d="M7.98596 11.7088C7.99588 11.7088 8.0058 11.708 8.01571 11.7066C8.21051 11.6903 8.35501 11.5189 8.33871 11.3241C8.28771 10.722 8.22467 10.2737 8.1333 9.87204C8.08938 9.68079 7.89742 9.56038 7.70901 9.605C7.51846 9.64892 7.39876 9.83875 7.44267 10.0293C7.52696 10.3976 7.58505 10.8155 7.63321 11.3843C7.6488 11.5692 7.80392 11.7088 7.98596 11.7088Z" fill="black"/>
<path d="M8.61597 14.1072C8.52035 13.6369 8.47218 13.1311 8.44172 12.743C8.42614 12.5482 8.25472 12.4008 8.06064 12.4178C7.86585 12.4334 7.71993 12.6041 7.73552 12.7989C7.7681 13.2069 7.81839 13.741 7.92181 14.2482C7.95581 14.4153 8.10314 14.5315 8.26818 14.5315C8.29227 14.5315 8.31564 14.5294 8.33972 14.5244C8.53097 14.4862 8.65493 14.2992 8.61597 14.1072Z" fill="black"/>
<path fill-rule="evenodd" clip-rule="evenodd" d="M10.625 10.7708C10.625 9.01338 12.0551 7.58325 13.8125 7.58325C15.5699 7.58325 17 9.01338 17 10.7708C17 12.385 14.4125 16.8249 14.1178 17.3257C14.054 17.4333 13.9379 17.4999 13.8125 17.4999C13.6871 17.4999 13.571 17.4333 13.5072 17.3257C13.2125 16.8249 10.625 12.385 10.625 10.7708ZM12.041 10.7707C12.041 11.7475 12.8351 12.5415 13.8118 12.5415C14.7886 12.5415 15.5827 11.7475 15.5827 10.7707C15.5827 9.79392 14.7886 8.99988 13.8118 8.99988C12.8351 8.99988 12.041 9.79392 12.041 10.7707Z" fill="black"/>
</svg>
