<svg width="25" height="26" viewBox="0 0 25 26" fill="none" xmlns="http://www.w3.org/2000/svg">
<g opacity="0.77" clip-path="url(#clip0_256_645)">
<path d="M22.7321 4.8999H2.47242C1.35427 4.8999 0.445312 5.80872 0.445312 6.9249V19.0749C0.445312 20.1911 1.35427 21.0999 2.47242 21.0999H22.733C23.8511 21.0999 24.7601 20.1911 24.7601 19.0749V6.9249C24.7592 5.80872 23.8511 4.8999 22.7321 4.8999ZM23.9484 19.0749C23.9484 19.7448 23.4027 20.2899 22.7321 20.2899H2.47242C1.80185 20.2899 1.25616 19.7448 1.25616 19.0749V6.9249C1.25616 6.25503 1.80185 5.7099 2.47242 5.7099H22.733C23.4035 5.7099 23.9492 6.25503 23.9492 6.9249L23.9484 19.0749Z" fill="white"/>
<path d="M22.262 7.51448C22.1404 7.32656 21.8874 7.27391 21.7017 7.39541L13.5851 12.6661C12.9292 13.1148 11.8605 13.1148 11.2045 12.6661L3.50151 7.40108C3.31907 7.27553 3.06527 7.3217 2.93716 7.50638C2.81229 7.69106 2.85851 7.94297 3.04419 8.06933L10.7472 13.3343C11.2102 13.6502 11.8045 13.8082 12.3973 13.8082C12.9876 13.8082 13.5779 13.6518 14.0352 13.34L22.1436 8.075C22.3309 7.95269 22.3836 7.70159 22.262 7.51448Z" fill="white"/>
<path d="M8.68522 13.097L3.00932 17.957C2.83904 18.1028 2.81877 18.3588 2.96472 18.5281C3.04662 18.6221 3.15932 18.6698 3.27284 18.6698C3.36609 18.6698 3.46015 18.6374 3.53636 18.5718L9.21227 13.7118C9.38254 13.566 9.40281 13.3101 9.25686 13.1408C9.1101 12.9707 8.85468 12.9512 8.68522 13.097Z" fill="white"/>
<path d="M16.5087 13.097C16.34 12.9512 16.0838 12.9707 15.937 13.1408C15.7919 13.3109 15.8114 13.566 15.9816 13.7118L21.6575 18.5718C21.733 18.6374 21.8278 18.6698 21.9203 18.6698C22.0346 18.6698 22.1473 18.6221 22.2284 18.5281C22.3735 18.358 22.3541 18.1028 22.1838 17.957L16.5087 13.097Z" fill="white"/>
</g>
<defs>
<clipPath id="clip0_256_645">
<rect width="24.3632" height="24.3" fill="white" transform="translate(0.328125 0.850098)"/>
</clipPath>
</defs>
</svg>
