<svg width="16" height="13" viewBox="0 0 16 13" fill="none" xmlns="http://www.w3.org/2000/svg">
<path fill-rule="evenodd" clip-rule="evenodd" d="M2.00078 0.5C1.06761 0.499937 0.258412 1.14522 0.0507812 2.055L8.00078 6.914L15.9508 2.055C15.7431 1.14522 14.934 0.499937 14.0008 0.5H2.00078ZM0 10.301V3.197L5.803 6.743L0 10.301ZM6.76141 7.32998L0.191406 11.357C0.522746 12.0556 1.22715 12.5007 2.00041 12.5H14.0004C14.7735 12.5002 15.4775 12.0547 15.8084 11.356L9.23841 7.32898L8.00041 8.08598L6.76141 7.32898V7.32998ZM16.0003 10.3013L10.1973 6.74427V6.74327L16.0003 3.19727V10.3013Z" fill="black"/>
</svg>
