<svg width="22" height="22" viewBox="0 0 22 22" fill="none" xmlns="http://www.w3.org/2000/svg">
<path d="M11.0794 11.8555C12.5169 11.8555 13.6822 10.6902 13.6822 9.25272C13.6822 7.81522 12.5169 6.6499 11.0794 6.6499C9.64189 6.6499 8.47656 7.81522 8.47656 9.25272C8.47656 10.6902 9.64189 11.8555 11.0794 11.8555Z" stroke="#E0505B" stroke-width="1.24936" stroke-linecap="round" stroke-linejoin="round"/>
<path d="M17.5767 9.25314C17.5767 15.1095 11.0696 19.6644 11.0696 19.6644C11.0696 19.6644 4.5625 15.1095 4.5625 9.25314C4.5625 7.52737 5.24807 5.87227 6.46838 4.65196C7.6887 3.43166 9.3438 2.74609 11.0696 2.74609C12.7954 2.74609 14.4505 3.43166 15.6708 4.65196C16.8911 5.87227 17.5767 7.52737 17.5767 9.25314V9.25314Z" stroke="#E0505B" stroke-width="1.24936" stroke-linecap="round" stroke-linejoin="round"/>
</svg>
