<svg width="17" height="17" viewBox="0 0 17 17" fill="none" xmlns="http://www.w3.org/2000/svg">
<rect x="0.828125" y="0.608521" width="16" height="16" rx="8" fill="#FF4F4F"/>
<path d="M9.00043 11.059L10.9706 12.3072C11.2224 12.4668 11.5351 12.2295 11.4603 11.9355L10.8911 9.69634C10.8751 9.63398 10.877 9.56835 10.8966 9.50702C10.9162 9.44568 10.9527 9.39113 11.002 9.34963L12.7687 7.87918C13.0008 7.68597 12.881 7.30071 12.5827 7.28136L10.2756 7.13162C10.2134 7.12718 10.1538 7.10518 10.1037 7.06818C10.0536 7.03117 10.015 6.98069 9.99243 6.92261L9.13195 4.7557C9.10856 4.69405 9.06697 4.64098 9.0127 4.60353C8.95844 4.56608 8.89406 4.54602 8.82813 4.54602C8.76219 4.54602 8.69782 4.56608 8.64355 4.60353C8.58928 4.64098 8.5477 4.69405 8.52431 4.7557L7.66382 6.92261C7.64128 6.98069 7.6027 7.03117 7.55257 7.06818C7.50245 7.10518 7.44284 7.12718 7.3807 7.13162L5.07352 7.28136C4.77527 7.30071 4.65546 7.68597 4.88759 7.87918L6.65428 9.34963C6.70352 9.39113 6.74004 9.44568 6.75965 9.50702C6.77926 9.56835 6.78116 9.63398 6.76513 9.69634L6.23724 11.7729C6.14757 12.1257 6.52277 12.4104 6.82497 12.219L8.65582 11.059C8.70731 11.0262 8.76709 11.0088 8.82813 11.0088C8.88917 11.0088 8.94894 11.0262 9.00043 11.059Z" fill="white"/>
</svg>
