<svg width="34" height="34" viewBox="0 0 34 34" fill="none" xmlns="http://www.w3.org/2000/svg">
<path fill-rule="evenodd" clip-rule="evenodd" d="M16.2739 6.19263H17.819C19.0765 6.19259 20.125 6.19256 20.9574 6.30448C21.836 6.42262 22.6293 6.6825 23.2666 7.32002C23.9041 7.95753 24.164 8.75088 24.2821 9.62959C24.394 10.4621 24.3939 11.5107 24.3939 12.7683V21.312C24.3939 22.5697 24.394 23.6183 24.2821 24.4508C24.164 25.3296 23.9041 26.1229 23.2666 26.7603C22.6293 27.3979 21.836 27.6578 20.9574 27.7759C20.125 27.8879 19.0765 27.8878 17.819 27.8878H16.2739C15.0165 27.8878 13.968 27.8879 13.1356 27.7759C12.257 27.6578 11.4637 27.3979 10.8263 26.7603C10.1889 26.1229 9.929 25.3296 9.81087 24.4508C9.69897 23.6183 9.699 22.5697 9.69904 21.312V12.7684C9.699 11.5108 9.69897 10.4621 9.81087 9.62959C9.929 8.75088 10.1889 7.95753 10.8263 7.32002C11.4637 6.6825 12.257 6.42262 13.1356 6.30448C13.968 6.19256 15.0165 6.19259 16.2739 6.19263ZM13.4153 8.38529C12.7695 8.47213 12.4931 8.6222 12.3107 8.80461C12.1283 8.98702 11.9783 9.26344 11.8914 9.90935C11.8005 10.5854 11.7983 11.4918 11.7983 12.8411V21.2393C11.7983 22.5885 11.8005 23.495 11.8914 24.171C11.9783 24.817 12.1283 25.0934 12.3107 25.2758C12.4931 25.4582 12.7695 25.6082 13.4153 25.6952C14.0913 25.786 14.9976 25.7882 16.3467 25.7882H17.7462C19.0954 25.7882 20.0017 25.786 20.6776 25.6952C21.3235 25.6082 21.5999 25.4582 21.7823 25.2758C21.9646 25.0934 22.1147 24.817 22.2016 24.171C22.2924 23.495 22.2946 22.5885 22.2946 21.2393V12.8411C22.2946 11.4918 22.2924 10.5854 22.2016 9.90935C22.1147 9.26344 21.9646 8.98702 21.7823 8.80461C21.5999 8.6222 21.3235 8.47213 20.6776 8.38529C20.0017 8.2944 19.0954 8.29216 17.7462 8.29216H16.3467C14.9976 8.29216 14.0913 8.2944 13.4153 8.38529Z" fill="#DD3E4A"/>
<path d="M30.3334 8.29191C28.9808 8.29191 27.8842 9.38857 27.8842 10.7414V23.3385C27.8842 24.6913 28.9808 25.788 30.3334 25.788H31.0331C31.6128 25.788 32.0828 26.258 32.0828 26.8377C32.0828 27.4175 31.6128 27.8875 31.0331 27.8875H30.3334C27.8214 27.8875 25.785 25.8508 25.785 23.3385V10.7414C25.785 8.22904 27.8214 6.19238 30.3334 6.19238H31.0331C31.6128 6.19238 32.0828 6.66238 32.0828 7.24215C32.0828 7.82191 31.6128 8.29191 31.0331 8.29191H30.3334Z" fill="#DD3E4A"/>
<path d="M3.04945 6.19238C2.46976 6.19238 1.99982 6.66238 1.99982 7.24215C1.99982 7.82191 2.46976 8.29191 3.04945 8.29191H3.74921C5.10183 8.29191 6.19835 9.38857 6.19835 10.7414V23.3385C6.19835 24.6913 5.10183 25.788 3.74921 25.788H3.04945C2.46976 25.788 1.99982 26.258 1.99982 26.8377C1.99982 27.4175 2.46976 27.8875 3.04945 27.8875H3.74921C6.26123 27.8875 8.29762 25.8508 8.29762 23.3385V10.7414C8.29762 8.22904 6.26123 6.19238 3.74921 6.19238H3.04945Z" fill="#DD3E4A"/>
</svg>
