<svg width="24" height="24" viewBox="0 0 24 24" fill="none" xmlns="http://www.w3.org/2000/svg">
<path d="M13.4528 3.00902H20.2573V1.55103H13.4528V3.00902ZM20.9863 3.73802V7.62602H22.4444V3.73802H20.9863ZM20.2573 8.35502H13.4528V9.81302H20.2573V8.35502ZM12.7237 7.62602V3.73802H11.2656V7.62602H12.7237ZM13.4528 8.35502C13.0502 8.35502 12.7237 8.02863 12.7237 7.62602H11.2656C11.2656 8.83387 12.2449 9.81302 13.4528 9.81302V8.35502ZM20.9863 7.62602C20.9863 8.02863 20.6599 8.35502 20.2573 8.35502V9.81302C21.4652 9.81302 22.4444 8.83387 22.4444 7.62602H20.9863ZM20.2573 3.00902C20.6599 3.00902 20.9863 3.33541 20.9863 3.73802H22.4444C22.4444 2.53018 21.4652 1.55103 20.2573 1.55103V3.00902ZM13.4528 1.55103C12.2449 1.55103 11.2656 2.53018 11.2656 3.73802H12.7237C12.7237 3.33541 13.0502 3.00902 13.4528 3.00902V1.55103Z" fill="#DD3E3E"/>
<path d="M2.27593 13.215C1.87329 13.215 1.54688 13.5414 1.54688 13.944C1.54688 14.3466 1.87329 14.673 2.27593 14.673V13.215ZM21.7173 14.673C22.12 14.673 22.4464 14.3466 22.4464 13.944C22.4464 13.5414 22.12 13.215 21.7173 13.215V14.673ZM2.27593 14.673H21.7173V13.215H2.27593V14.673Z" fill="#DD3E3E"/>
<path d="M2.27593 17.103C1.87329 17.103 1.54688 17.4294 1.54688 17.832C1.54688 18.2346 1.87329 18.561 2.27593 18.561V17.103ZM21.7173 18.561C22.12 18.561 22.4464 18.2346 22.4464 17.832C22.4464 17.4294 22.12 17.103 21.7173 17.103V18.561ZM2.27593 18.561H21.7173V17.103H2.27593V18.561Z" fill="#DD3E3E"/>
<path d="M2.27593 20.991C1.87329 20.991 1.54688 21.3174 1.54688 21.72C1.54688 22.1226 1.87329 22.449 2.27593 22.449V20.991ZM13.9408 22.449C14.3434 22.449 14.6698 22.1226 14.6698 21.72C14.6698 21.3174 14.3434 20.991 13.9408 20.991V22.449ZM2.27593 22.449H13.9408V20.991H2.27593V22.449Z" fill="#DD3E3E"/>
<path d="M9.08042 6.411C9.48306 6.411 9.80947 6.08461 9.80947 5.682C9.80947 5.27939 9.48306 4.953 9.08042 4.953V6.411ZM2.27593 4.953C1.87329 4.953 1.54688 5.27939 1.54688 5.682C1.54688 6.08461 1.87329 6.411 2.27593 6.411V4.953ZM9.08042 4.953H2.27593V6.411H9.08042V4.953Z" fill="#DD3E3E"/>
<path d="M6.7201 1.80562C6.45807 1.49992 5.99781 1.46452 5.69211 1.72654C5.38639 1.98856 5.35099 2.44878 5.61303 2.75446L6.7201 1.80562ZM9.08278 5.68204L9.63631 6.15646C9.87034 5.88346 9.87034 5.48061 9.63631 5.20761L9.08278 5.68204ZM5.61303 8.60961C5.35099 8.9153 5.38639 9.37552 5.69211 9.63753C5.99781 9.89955 6.45807 9.86415 6.7201 9.55846L5.61303 8.60961ZM5.61303 2.75446L8.52924 6.15646L9.63631 5.20761L6.7201 1.80562L5.61303 2.75446ZM8.52924 5.20761L5.61303 8.60961L6.7201 9.55846L9.63631 6.15646L8.52924 5.20761Z" fill="#DD3E3E"/>
</svg>
