<svg width="112" height="20" viewBox="0 0 112 20" fill="none" xmlns="http://www.w3.org/2000/svg">
<rect width="20" height="20" rx="4" fill="#DD3E4A"/>
<rect x="23" width="20" height="20" rx="4" fill="#DD3E4A"/>
<rect x="46" width="20" height="20" rx="4" fill="#DD3E4A"/>
<rect x="69" width="20" height="20" rx="4" fill="#DD3E4A"/>
<rect x="92" width="20" height="20" rx="4" fill="#E6E6E6"/>
<path opacity="0.99" d="M9.79902 12.8493L13.6435 15.1696L12.6233 10.7964L16.0199 7.85396L11.5471 7.47449L9.79902 3.3501L8.05095 7.47449L3.57812 7.85396L6.97474 10.7964L5.95451 15.1696L9.79902 12.8493Z" fill="#FCFCFC"/>
<path opacity="0.99" d="M32.799 12.8493L36.6435 15.1696L35.6233 10.7964L39.0199 7.85396L34.5471 7.47449L32.799 3.3501L31.051 7.47449L26.5781 7.85396L29.9747 10.7964L28.9545 15.1696L32.799 12.8493Z" fill="#FCFCFC"/>
<path opacity="0.99" d="M55.799 12.8493L59.6435 15.1696L58.6233 10.7964L62.0199 7.85396L57.5471 7.47449L55.799 3.3501L54.051 7.47449L49.5781 7.85396L52.9747 10.7964L51.9545 15.1696L55.799 12.8493Z" fill="#FCFCFC"/>
<path opacity="0.99" d="M78.799 12.8493L82.6435 15.1696L81.6233 10.7964L85.0199 7.85396L80.5471 7.47449L78.799 3.3501L77.051 7.47449L72.5781 7.85396L75.9747 10.7964L74.9545 15.1696L78.799 12.8493Z" fill="#FCFCFC"/>
<path opacity="0.99" d="M101.799 12.8493L105.644 15.1696L104.623 10.7964L108.02 7.85396L103.547 7.47449L101.799 3.3501L100.051 7.47449L95.5781 7.85396L98.9747 10.7964L97.9545 15.1696L101.799 12.8493Z" fill="#FCFCFC"/>
</svg>
