<svg width="18" height="14" viewBox="0 0 18 14" fill="none" xmlns="http://www.w3.org/2000/svg">
<path fill-rule="evenodd" clip-rule="evenodd" d="M2.91186 0.228149C1.91797 0.228082 1.05613 0.915475 0.834991 1.88463L9.30223 7.06073L17.7695 1.88463C17.5483 0.915475 16.6865 0.228082 15.6926 0.228149H2.91186ZM0.785156 10.6687V3.10105L6.96571 6.87846L0.785156 10.6687ZM7.98578 7.50387L0.988326 11.7937C1.34122 12.5379 2.09146 13.0121 2.91502 13.0113H15.6958C16.5192 13.0114 17.269 12.5369 17.6214 11.7926L10.6239 7.5028L9.30539 8.3092L7.98578 7.5028V7.50387ZM17.8249 10.6688L11.6444 6.87967V6.87861L17.8249 3.10119V10.6688Z" fill="#DD3E4A"/>
</svg>
