<svg width="20" height="22" viewBox="0 0 20 22" fill="none" xmlns="http://www.w3.org/2000/svg">
<path d="M15.9755 15.7193C15.1746 15.7193 14.4579 16.0355 13.91 16.5309L6.39612 12.157C6.44881 11.9146 6.49097 11.6721 6.49097 11.4192C6.49097 11.1662 6.44881 10.9238 6.39612 10.6814L13.8256 6.34967C14.3947 6.87665 15.1429 7.20337 15.9755 7.20337C17.7248 7.20337 19.137 5.79107 19.137 4.04151C19.137 2.29194 17.7248 0.879639 15.9755 0.879639C14.2261 0.879639 12.814 2.29194 12.814 4.04151C12.814 4.29446 12.8561 4.53687 12.9088 4.77928L5.47929 9.11104C4.91022 8.58406 4.162 8.25733 3.32947 8.25733C1.58011 8.25733 0.167969 9.66963 0.167969 11.4192C0.167969 13.1688 1.58011 14.5811 3.32947 14.5811C4.162 14.5811 4.91022 14.2543 5.47929 13.7274L12.9826 18.1118C12.9299 18.3332 12.8983 18.565 12.8983 18.7969C12.8983 20.4938 14.2788 21.8744 15.9755 21.8744C17.6721 21.8744 19.0527 20.4938 19.0527 18.7969C19.0527 17.1 17.6721 15.7193 15.9755 15.7193ZM15.9755 2.98755C16.5551 2.98755 17.0293 3.46183 17.0293 4.04151C17.0293 4.62118 16.5551 5.09546 15.9755 5.09546C15.3959 5.09546 14.9216 4.62118 14.9216 4.04151C14.9216 3.46183 15.3959 2.98755 15.9755 2.98755ZM3.32947 12.4732C2.74986 12.4732 2.27563 11.9989 2.27563 11.4192C2.27563 10.8395 2.74986 10.3652 3.32947 10.3652C3.90908 10.3652 4.3833 10.8395 4.3833 11.4192C4.3833 11.9989 3.90908 12.4732 3.32947 12.4732ZM15.9755 19.8719C15.3959 19.8719 14.9216 19.3976 14.9216 18.818C14.9216 18.2383 15.3959 17.764 15.9755 17.764C16.5551 17.764 17.0293 18.2383 17.0293 18.818C17.0293 19.3976 16.5551 19.8719 15.9755 19.8719Z" fill="#DD3E4A"/>
</svg>
