<svg width="22" height="21" viewBox="0 0 22 21" fill="none" xmlns="http://www.w3.org/2000/svg">
<g clip-path="url(#clip0_123_5209)">
<path d="M18.8362 12.4641C17.9396 12.4641 17.0722 12.3183 16.2632 12.0558C16.008 11.9684 15.7238 12.034 15.527 12.2308L14.3826 13.6669C12.3198 12.6828 10.3882 10.8238 9.36041 8.68787L10.7818 7.47774C10.9786 7.27362 11.0369 6.98931 10.9567 6.73416C10.687 5.92497 10.5485 5.05746 10.5485 4.16079C10.5485 3.76714 10.2205 3.43909 9.82691 3.43909H7.3049C6.91129 3.43909 6.4375 3.61405 6.4375 4.16079C6.4375 10.9332 12.0719 16.561 18.8362 16.561C19.3537 16.561 19.5578 16.1018 19.5578 15.7008V13.1858C19.5578 12.7921 19.2298 12.4641 18.8362 12.4641Z" fill="#DD3E4A"/>
</g>
<defs>
<clipPath id="clip0_123_5209">
<rect width="20.2411" height="20.2395" fill="white" transform="translate(0.921875 0.277344)"/>
</clipPath>
</defs>
</svg>
