<svg width="26" height="26" viewBox="0 0 26 26" fill="none" xmlns="http://www.w3.org/2000/svg">
<path fill-rule="evenodd" clip-rule="evenodd" d="M13.2927 0.687988C6.47306 0.687988 0.925781 6.23784 0.925781 13.0607C0.925781 15.7665 1.79823 18.2759 3.28134 20.3128L1.73996 24.9097L6.4948 23.3898C8.45045 24.6845 10.7843 25.4336 13.2999 25.4336C20.1195 25.4336 25.6668 19.8835 25.6668 13.0609C25.6668 6.23806 20.1195 0.688193 13.2999 0.688193L13.2927 0.687988ZM9.83917 6.97276C9.5993 6.39817 9.41751 6.37642 9.05412 6.36164C8.93039 6.35445 8.7925 6.34727 8.63964 6.34727C8.16688 6.34727 7.67259 6.48543 7.37445 6.79089C7.01106 7.16184 6.10945 8.02731 6.10945 9.8022C6.10945 11.5771 7.40358 13.2937 7.57799 13.5339C7.75979 13.7736 10.101 17.4688 13.7361 18.9747C16.5788 20.1531 17.4223 20.0438 18.0693 19.9057C19.0144 19.702 20.1996 19.0035 20.4977 18.16C20.7958 17.316 20.7958 16.5959 20.7084 16.4432C20.6212 16.2904 20.3811 16.2034 20.0177 16.0213C19.6544 15.8394 17.8875 14.9665 17.553 14.8501C17.2257 14.7266 16.9132 14.7703 16.6662 15.1195C16.3172 15.6068 15.9755 16.1016 15.6992 16.3996C15.481 16.6324 15.1246 16.6616 14.8267 16.5378C14.4268 16.3707 13.3073 15.9776 11.9257 14.7483C10.8569 13.7956 10.1299 12.6101 9.9192 12.2537C9.70827 11.8901 9.89743 11.6789 10.0645 11.4827C10.2462 11.257 10.4207 11.0971 10.6025 10.8861C10.7843 10.6753 10.8861 10.5661 11.0024 10.3187C11.1261 10.0787 11.0387 9.83135 10.9515 9.64947C10.8643 9.46759 10.1373 7.6927 9.83917 6.97276Z" fill="#DD3E4A"/>
</svg>
