<svg width="25" height="21" viewBox="0 0 25 21" fill="none" xmlns="http://www.w3.org/2000/svg">
<path d="M12.7773 0V4.19073H16.1184C15.3388 1.92599 14.1353 0.334492 12.7773 0Z" fill="#DD3E4A"/>
<path d="M11.7161 4.19085V0.00012207C10.3581 0.334614 9.15463 1.92611 8.375 4.19085H11.7161Z" fill="#DD3E4A"/>
<path d="M19.3746 4.19081C19.5844 4.19081 19.7751 4.06724 19.8614 3.87549C19.9476 3.68374 19.9125 3.45897 19.7719 3.30238C18.5364 1.92393 16.9591 0.930046 15.2305 0.39209C16.0623 1.31674 16.7556 2.62061 17.253 4.19081H19.3746Z" fill="#DD3E4A"/>
<path d="M5.11469 4.19081H7.23629C7.73474 2.62061 8.4281 1.31674 9.25991 0.39209C7.53131 0.930046 5.95396 1.92393 4.71849 3.30238C4.5779 3.45897 4.54275 3.68374 4.62796 3.87549C4.71423 4.06724 4.90487 4.19081 5.11469 4.19081Z" fill="#DD3E4A"/>
<path d="M11.7161 20.0993V15.9086H8.375C9.15463 18.1733 10.3581 19.7648 11.7161 20.0993Z" fill="#DD3E4A"/>
<path d="M12.7773 15.9086V20.0993C14.1353 19.7648 15.3388 18.1733 16.1184 15.9086H12.7773Z" fill="#DD3E4A"/>
<path d="M19.3746 15.9086H17.253C16.7556 17.4788 16.0623 18.7826 15.2305 19.7073C16.9591 19.1693 18.5364 18.1754 19.7719 16.797C19.9114 16.6404 19.9466 16.4156 19.8614 16.2239C19.7751 16.0321 19.5844 15.9086 19.3746 15.9086Z" fill="#DD3E4A"/>
<path d="M5.11469 15.9087C4.90487 15.9087 4.71423 16.0323 4.62796 16.224C4.54275 16.4158 4.5779 16.6405 4.71849 16.7971C5.95396 18.1756 7.53131 19.1695 9.25991 19.7074C8.42703 18.7828 7.73368 17.4799 7.23629 15.9087H5.11469Z" fill="#DD3E4A"/>
<path fill-rule="evenodd" clip-rule="evenodd" d="M2.66265 5.25598H21.8338C23.3025 5.25598 24.4964 6.4512 24.4964 7.91913V12.1802C24.4964 13.6481 23.3025 14.8433 21.8338 14.8433H2.66265C1.19393 14.8433 0 13.6481 0 12.1802V7.91913C0 6.4512 1.19393 5.25598 2.66265 5.25598ZM7.43901 12.3089L8.50407 8.04786C8.57543 7.76343 8.40289 7.47368 8.11426 7.40125C7.82456 7.32987 7.54019 7.50245 7.46883 7.789L6.8479 10.2753L6.36117 8.81485C6.21632 8.38022 5.49634 8.38022 5.35042 8.81485L4.86369 10.2753L4.24276 7.789C4.1714 7.50245 3.87851 7.32881 3.59733 7.40125C3.31189 7.47262 3.13935 7.7613 3.20965 8.04679L4.27471 12.3078C4.33222 12.5369 4.53458 12.702 4.77103 12.7105C5.05327 12.7222 5.22261 12.571 5.29717 12.3472L5.85633 10.6673L6.41548 12.3472C6.48897 12.5656 6.6924 12.7116 6.92139 12.7116H6.94269C7.17913 12.703 7.38149 12.539 7.43901 12.3089ZM14.8934 8.04786L13.8284 12.3089C13.7708 12.539 13.5685 12.703 13.332 12.7116H13.3107C13.0818 12.7116 12.8783 12.5656 12.8048 12.3472L12.2457 10.6673L11.6865 12.3472C11.612 12.571 11.4384 12.7222 11.1604 12.7105C10.9239 12.702 10.7216 12.5369 10.6641 12.3078L9.599 8.04679C9.52871 7.7613 9.70125 7.47262 9.98668 7.40125C10.2679 7.32881 10.5618 7.50245 10.6321 7.789L11.253 10.2753L11.7398 8.81485C11.8857 8.38022 12.6057 8.38022 12.7505 8.81485L13.2373 10.2753L13.8582 7.789C13.9285 7.50245 14.2139 7.32987 14.5036 7.40125C14.7922 7.47368 14.9648 7.76343 14.8934 8.04786ZM20.2206 12.309L21.2856 8.04795C21.357 7.76352 21.1844 7.47377 20.8958 7.40134C20.605 7.32996 20.3207 7.50253 20.2504 7.78909L19.6294 10.2754L19.1427 8.81493C18.9979 8.38031 18.2779 8.38031 18.132 8.81493L17.6452 10.2754L17.0243 7.78909C16.954 7.50253 16.6601 7.3289 16.3789 7.40134C16.0934 7.47271 15.9209 7.76139 15.9912 8.04688L17.0563 12.3079C17.1138 12.537 17.3161 12.7021 17.5526 12.7106C17.8252 12.7223 18.0042 12.571 18.0787 12.3473L18.6379 10.6674L19.197 12.3473C19.2705 12.5657 19.4739 12.7117 19.7029 12.7117H19.7242C19.9607 12.7031 20.163 12.5391 20.2206 12.309Z" fill="#DD3E4A"/>
</svg>
