<svg width="16" height="16" viewBox="0 0 16 16" fill="none" xmlns="http://www.w3.org/2000/svg">
<path d="M14.404 10.4076C13.3881 10.4076 12.4053 10.2423 11.4886 9.94496C11.1995 9.84584 10.8774 9.92018 10.6544 10.1432L9.35775 11.7706C7.02046 10.6554 4.83183 8.54892 3.66732 6.12856L5.27781 4.75729C5.50081 4.526 5.56688 4.20383 5.47603 3.91471C5.17045 2.99778 5.01353 2.01477 5.01353 0.99871C5.01353 0.552636 4.64187 0.180908 4.19589 0.180908H1.33829C0.892302 0.180908 0.355469 0.379163 0.355469 0.99871C0.355469 8.67283 6.73965 15.05 14.404 15.05C14.9904 15.05 15.2216 14.5296 15.2216 14.0753V11.2254C15.2216 10.7793 14.85 10.4076 14.404 10.4076Z" fill="#DD3E4A"/>
</svg>
