<svg width="15" height="18" viewBox="0 0 15 18" fill="none" xmlns="http://www.w3.org/2000/svg">
<path opacity="0.77" d="M12.2943 12.2974C11.6771 12.2974 11.1249 12.5404 10.7026 12.9211L4.9126 9.55957C4.95321 9.37327 4.98569 9.18697 4.98569 8.99257C4.98569 8.79817 4.95321 8.61187 4.9126 8.42557L10.6377 5.09647C11.0762 5.50147 11.6528 5.75257 12.2943 5.75257C13.6423 5.75257 14.7305 4.66717 14.7305 3.32258C14.7305 1.97798 13.6423 0.892578 12.2943 0.892578C10.9463 0.892578 9.8581 1.97798 9.8581 3.32258C9.8581 3.51697 9.89058 3.70327 9.93118 3.88957L4.2061 7.21867C3.76759 6.81367 3.19102 6.56257 2.54949 6.56257C1.20145 6.56257 0.113281 7.64797 0.113281 8.99257C0.113281 10.3372 1.20145 11.4226 2.54949 11.4226C3.19102 11.4226 3.76759 11.1715 4.2061 10.7665L9.98803 14.1361C9.94742 14.3062 9.92306 14.4844 9.92306 14.6626C9.92306 15.9667 10.9869 17.0278 12.2943 17.0278C13.6017 17.0278 14.6655 15.9667 14.6655 14.6626C14.6655 13.3585 13.6017 12.2974 12.2943 12.2974Z" fill="white"/>
</svg>
