<svg width="12" height="13" viewBox="0 0 12 13" fill="none" xmlns="http://www.w3.org/2000/svg">
<path d="M10.9012 8.43401C10.113 8.43401 9.35034 8.30583 8.63897 8.07512C8.41466 7.99821 8.16472 8.05589 7.99169 8.22893L6.98552 9.49145C5.17185 8.62627 3.47353 6.99204 2.5699 5.11429L3.8196 4.05044C3.99264 3.87099 4.04391 3.62105 3.97341 3.39675C3.73629 2.68538 3.61452 1.92274 3.61452 1.13446C3.61452 0.788393 3.32613 0.5 2.98006 0.5H0.762639C0.416567 0.5 0 0.653809 0 1.13446C0 7.08817 4.95395 12.0357 10.9012 12.0357C11.3563 12.0357 11.5357 11.632 11.5357 11.2795V9.06847C11.5357 8.7224 11.2473 8.43401 10.9012 8.43401Z" fill="black"/>
</svg>
