<svg width="18" height="17" viewBox="0 0 18 17" fill="none" xmlns="http://www.w3.org/2000/svg">
<path d="M9.07941 1.79407C5.41484 1.79407 2.44531 4.76402 2.44531 8.42797C2.44531 12.0919 5.41484 15.0619 9.07941 15.0619C12.743 15.0619 15.7135 12.0919 15.7135 8.42797C15.7135 4.76402 12.7435 1.79407 9.07941 1.79407ZM9.02582 13.7999C6.06651 13.7999 3.66752 11.401 3.66752 8.44175C3.66752 5.48252 6.06651 3.0836 9.02582 3.0836C11.9846 3.0836 14.3841 5.48252 14.3841 8.44175C14.3841 11.401 11.9846 13.7999 9.02582 13.7999ZM10.5746 8.74997H9.05389V6.18214C9.05389 5.90352 8.82782 5.67694 8.54919 5.67694C8.27056 5.67694 8.04398 5.90301 8.04398 6.18214V9.25466C8.04398 9.53379 8.27005 9.75935 8.54919 9.75935H10.5746C10.8538 9.75935 11.0798 9.53379 11.0798 9.25466C11.0798 8.97604 10.8538 8.74997 10.5746 8.74997Z" fill="#DD3E4A"/>
</svg>
