<svg width="17" height="16" viewBox="0 0 17 16" fill="none" xmlns="http://www.w3.org/2000/svg">
<g clip-path="url(#clip0_256_631)">
<path d="M5.93737 14.4021C11.9417 14.4021 15.2253 9.45627 15.2253 5.1674C15.2253 5.02694 15.2224 4.88712 15.216 4.74789C15.855 4.28823 16.4063 3.71911 16.8444 3.06719C16.2595 3.32574 15.63 3.49976 14.9697 3.57821C15.6437 3.17641 16.1611 2.54074 16.4052 1.78303C15.7644 2.16099 15.0634 2.42742 14.3324 2.57086C13.7367 1.93998 12.8886 1.54541 11.9496 1.54541C10.1469 1.54541 8.68502 2.99892 8.68502 4.7906C8.68502 5.04532 8.71371 5.29301 8.76972 5.53067C6.05664 5.39493 3.65088 4.10341 2.04082 2.13958C1.75083 2.6349 1.5983 3.19784 1.59881 3.7709C1.59881 4.89696 2.17509 5.89101 3.05147 6.47258C2.53308 6.45684 2.02607 6.31762 1.57306 6.06663C1.57258 6.08026 1.57258 6.09353 1.57258 6.10809C1.57258 7.67992 2.69778 8.9923 4.19146 9.28967C3.91092 9.36564 3.62145 9.40404 3.33069 9.40387C3.12071 9.40387 2.91607 9.38334 2.71719 9.34538C3.13277 10.635 4.33785 11.5734 5.76662 11.5996C4.64934 12.4703 3.24192 12.9889 1.71225 12.9889C1.45204 12.9892 1.19203 12.9741 0.933594 12.944C2.37831 13.8647 4.09376 14.4019 5.93753 14.4019" fill="white"/>
</g>
<defs>
<clipPath id="clip0_256_631">
<rect width="16" height="16" fill="white" transform="translate(0.933594)"/>
</clipPath>
</defs>
</svg>
