<svg width="19" height="18" viewBox="0 0 19 18" fill="none" xmlns="http://www.w3.org/2000/svg">
<path opacity="0.77" d="M4.33827 2C4.39843 2.89 4.54882 3.76 4.78944 4.59L3.58632 5.79C3.17525 4.59 2.91458 3.32 2.82434 2H4.33827ZM14.2239 14.02C15.0761 14.26 15.9484 14.41 16.8307 14.47V15.96C15.5073 15.87 14.2339 15.61 13.0208 15.21L14.2239 14.02ZM5.30077 0H1.79166C1.24023 0 0.789062 0.45 0.789062 1C0.789062 10.39 8.41886 18 17.8333 18C18.3847 18 18.8359 17.55 18.8359 17V13.51C18.8359 12.96 18.3847 12.51 17.8333 12.51C16.5901 12.51 15.3769 12.31 14.254 11.94C14.1537 11.9 14.0435 11.89 13.9432 11.89C13.6825 11.89 13.4319 11.99 13.2313 12.18L11.0256 14.38C8.18826 12.93 5.86223 10.62 4.41848 7.79L6.6242 5.59C6.90493 5.31 6.98514 4.92 6.87485 4.57C6.50389 3.45 6.30337 2.25 6.30337 1C6.30337 0.45 5.8522 0 5.30077 0Z" fill="white"/>
</svg>
