<svg width="18" height="18" viewBox="0 0 18 18" fill="none" xmlns="http://www.w3.org/2000/svg">
<path fill-rule="evenodd" clip-rule="evenodd" d="M9.09366 0.128784C4.42583 0.128784 0.628906 3.92677 0.628906 8.5959C0.628906 10.4476 1.22607 12.1649 2.24121 13.5588L1.18619 16.7047L4.44072 15.6645C5.7793 16.5506 7.37671 17.0632 9.09857 17.0632C13.7664 17.0632 17.5633 13.265 17.5633 8.59606C17.5633 3.92692 13.7664 0.128924 9.09857 0.128924L9.09366 0.128784ZM6.72983 4.42971C6.56565 4.03649 6.44121 4.0216 6.19249 4.01149C6.1078 4.00657 6.01342 4.00166 5.90879 4.00166C5.5852 4.00166 5.24687 4.0962 5.04281 4.30524C4.79408 4.5591 4.17696 5.15138 4.17696 6.366C4.17696 7.58063 5.06275 8.75535 5.18213 8.91972C5.30656 9.08381 6.90903 11.6125 9.39715 12.6431C11.3429 13.4495 11.9202 13.3748 12.3631 13.2802C13.01 13.1409 13.8212 12.6628 14.0252 12.0855C14.2293 11.508 14.2293 11.0152 14.1695 10.9107C14.1098 10.8061 13.9455 10.7466 13.6967 10.622C13.448 10.4975 12.2386 9.90016 12.0097 9.82051C11.7857 9.73594 11.5718 9.76586 11.4027 10.0048C11.1638 10.3383 10.93 10.6769 10.7408 10.8809C10.5915 11.0402 10.3475 11.0601 10.1436 10.9754C9.86989 10.8611 9.10363 10.592 8.15802 9.75083C7.42644 9.09884 6.92884 8.28754 6.78461 8.04366C6.64023 7.79487 6.7697 7.65031 6.88403 7.516C7.00846 7.36161 7.12785 7.25217 7.25229 7.10776C7.37672 6.96348 7.44639 6.88874 7.52602 6.71946C7.61071 6.55523 7.55087 6.38595 7.49118 6.26148C7.43149 6.13701 6.93389 4.92238 6.72983 4.42971Z" fill="black"/>
</svg>
