<svg width="23" height="20" viewBox="0 0 23 20" fill="none" xmlns="http://www.w3.org/2000/svg">
<path d="M12 0.5V4.434H15.137C14.405 2.308 13.275 0.814 12 0.5Z" fill="black"/>
<path d="M11.0003 4.434V0.5C9.72528 0.814 8.59528 2.308 7.86328 4.434H11.0003Z" fill="black"/>
<path d="M18.1957 4.43404C18.3927 4.43404 18.5717 4.31804 18.6527 4.13804C18.7337 3.95804 18.7007 3.74704 18.5687 3.60004C17.4087 2.30604 15.9277 1.37304 14.3047 0.868042C15.0857 1.73604 15.7367 2.96004 16.2037 4.43404H18.1957Z" fill="black"/>
<path d="M4.80481 4.43404H6.79681C7.26481 2.96004 7.91581 1.73604 8.69681 0.868042C7.07381 1.37304 5.59281 2.30604 4.43281 3.60004C4.30081 3.74704 4.26781 3.95804 4.34781 4.13804C4.42881 4.31804 4.60781 4.43404 4.80481 4.43404Z" fill="black"/>
<path d="M11.0003 19.368V15.434H7.86328C8.59528 17.56 9.72528 19.054 11.0003 19.368Z" fill="black"/>
<path d="M12 15.434V19.368C13.275 19.054 14.405 17.56 15.137 15.434H12Z" fill="black"/>
<path d="M18.1957 15.434H16.2037C15.7367 16.908 15.0857 18.132 14.3047 19C15.9277 18.495 17.4087 17.562 18.5687 16.268C18.6997 16.121 18.7327 15.91 18.6527 15.73C18.5717 15.55 18.3927 15.434 18.1957 15.434Z" fill="black"/>
<path d="M4.80481 15.434C4.60781 15.434 4.42881 15.55 4.34781 15.73C4.26781 15.91 4.30081 16.121 4.43281 16.268C5.59281 17.562 7.07381 18.495 8.69681 19C7.91481 18.132 7.26381 16.909 6.79681 15.434H4.80481Z" fill="black"/>
<path fill-rule="evenodd" clip-rule="evenodd" d="M2.5 5.43396H20.5C21.879 5.43396 23 6.55596 23 7.93396V11.934C23 13.312 21.879 14.434 20.5 14.434H2.5C1.121 14.434 0 13.312 0 11.934V7.93396C0 6.55596 1.121 5.43396 2.5 5.43396ZM6.98572 12.0549L7.98572 8.05493C8.05272 7.78793 7.89072 7.51593 7.61972 7.44793C7.34772 7.38093 7.08072 7.54293 7.01372 7.81193L6.43072 10.1459L5.97372 8.77493C5.83772 8.36693 5.16172 8.36693 5.02472 8.77493L4.56772 10.1459L3.98472 7.81193C3.91772 7.54293 3.64272 7.37993 3.37872 7.44793C3.11072 7.51493 2.94872 7.78593 3.01472 8.05393L4.01472 12.0539C4.06872 12.2689 4.25872 12.4239 4.48072 12.4319C4.74572 12.4429 4.90472 12.3009 4.97472 12.0909L5.49972 10.5139L6.02472 12.0909C6.09372 12.2959 6.28472 12.4329 6.49972 12.4329H6.51972C6.74172 12.4249 6.93172 12.2709 6.98572 12.0549ZM13.9857 8.05493L12.9857 12.0549C12.9317 12.2709 12.7417 12.4249 12.5197 12.4329H12.4997C12.2847 12.4329 12.0937 12.2959 12.0247 12.0909L11.4997 10.5139L10.9747 12.0909C10.9047 12.3009 10.7417 12.4429 10.4807 12.4319C10.2587 12.4239 10.0687 12.2689 10.0147 12.0539L9.01472 8.05393C8.94872 7.78593 9.11072 7.51493 9.37872 7.44793C9.64272 7.37993 9.91872 7.54293 9.98472 7.81193L10.5677 10.1459L11.0247 8.77493C11.1617 8.36693 11.8377 8.36693 11.9737 8.77493L12.4307 10.1459L13.0137 7.81193C13.0797 7.54293 13.3477 7.38093 13.6197 7.44793C13.8907 7.51593 14.0527 7.78793 13.9857 8.05493ZM18.9857 12.0549L19.9857 8.05493C20.0527 7.78793 19.8907 7.51593 19.6197 7.44793C19.3467 7.38093 19.0797 7.54293 19.0137 7.81193L18.4307 10.1459L17.9737 8.77493C17.8377 8.36693 17.1617 8.36693 17.0247 8.77493L16.5677 10.1459L15.9847 7.81193C15.9187 7.54293 15.6427 7.37993 15.3787 7.44793C15.1107 7.51493 14.9487 7.78593 15.0147 8.05393L16.0147 12.0539C16.0687 12.2689 16.2587 12.4239 16.4807 12.4319C16.7367 12.4429 16.9047 12.3009 16.9747 12.0909L17.4997 10.5139L18.0247 12.0909C18.0937 12.2959 18.2847 12.4329 18.4997 12.4329H18.5197C18.7417 12.4249 18.9317 12.2709 18.9857 12.0549Z" fill="black"/>
</svg>
