<svg width="113" height="21" viewBox="0 0 113 21" fill="none" xmlns="http://www.w3.org/2000/svg">
<rect x="0.546875" y="0.717041" width="19.9575" height="19.9612" rx="4" fill="#ECB02A"/>
<rect x="23.4961" y="0.717041" width="19.9575" height="19.9612" rx="4" fill="#ECB02A"/>
<rect x="46.4492" y="0.717041" width="19.9575" height="19.9612" rx="4" fill="#ECB02A"/>
<rect x="69.3984" y="0.717041" width="19.9575" height="19.9612" rx="4" fill="#ECB02A"/>
<rect x="92.3516" y="0.717041" width="19.9575" height="19.9612" rx="4" fill="#E6E6E6"/>
<path opacity="0.99" d="M10.3249 13.5416L14.1612 15.8574L13.1432 11.4927L16.5326 8.55593L12.0692 8.17719L10.3249 4.06079L8.58051 8.17719L4.11719 8.55593L7.50658 11.4927L6.48852 15.8574L10.3249 13.5416Z" fill="#FCFCFC"/>
<path opacity="0.99" d="M33.278 13.5416L37.1143 15.8574L36.0963 11.4927L39.4857 8.55593L35.0224 8.17719L33.278 4.06079L31.5336 8.17719L27.0703 8.55593L30.4597 11.4927L29.4416 15.8574L33.278 13.5416Z" fill="#FCFCFC"/>
<path opacity="0.99" d="M56.2272 13.5416L60.0636 15.8574L59.0455 11.4927L62.4349 8.55593L57.9716 8.17719L56.2272 4.06079L54.4829 8.17719L50.0195 8.55593L53.4089 11.4927L52.3909 15.8574L56.2272 13.5416Z" fill="#FCFCFC"/>
<path opacity="0.99" d="M79.1803 13.5416L83.0167 15.8574L81.9986 11.4927L85.388 8.55593L80.9247 8.17719L79.1803 4.06079L77.436 8.17719L72.9727 8.55593L76.3621 11.4927L75.344 15.8574L79.1803 13.5416Z" fill="#FCFCFC"/>
<path opacity="0.99" d="M102.13 13.5416L105.966 15.8574L104.948 11.4927L108.337 8.55593L103.874 8.17719L102.13 4.06079L100.385 8.17719L95.9219 8.55593L99.3113 11.4927L98.2932 15.8574L102.13 13.5416Z" fill="#FCFCFC"/>
</svg>
