<svg width="17" height="16" viewBox="0 0 17 16" fill="none" xmlns="http://www.w3.org/2000/svg">
<path d="M8.3937 13.6327L5.11108 13.5714C4.04821 13.5501 2.98272 13.5927 1.94075 13.3715C0.35558 13.0411 0.243286 11.4209 0.12577 10.0618C-0.0361417 8.15113 0.0265337 6.20581 0.332076 4.31112C0.504434 3.24786 1.18342 2.61363 2.23323 2.54434C5.777 2.29385 9.34428 2.32316 12.8802 2.44041C13.2537 2.45107 13.6297 2.5097 13.9979 2.57632C15.8155 2.90143 15.8599 4.73749 15.9774 6.28309C16.0949 7.84468 16.0453 9.41426 15.8207 10.9652C15.6405 12.2496 15.2958 13.3262 13.8412 13.4301C12.0184 13.5661 10.2374 13.6753 8.40937 13.6407C8.40937 13.6327 8.39892 13.6327 8.3937 13.6327ZM6.46382 10.3816C7.83746 9.57681 9.18498 8.78536 10.5508 7.98591C9.17453 7.18114 7.82962 6.38968 6.46382 5.59024V10.3816Z" fill="white"/>
</svg>
